<svg width="41" height="41" viewBox="0 0 41 41" fill="none" xmlns="http://www.w3.org/2000/svg">
<ellipse cx="20.7322" cy="20.9361" rx="20.1365" ry="19.9574" fill="#102243"/>
<g clip-path="url(#clip0_7736_10)">
<path d="M21.0187 33.9084H19.439C18.1613 33.9084 17.1218 32.8781 17.1218 31.6119V31.0822C16.5786 30.9102 16.0509 30.6931 15.5439 30.433L15.1651 30.8084C14.2478 31.7187 12.7784 31.692 11.8878 30.8081L10.7713 29.7015C9.87906 28.8182 9.8534 27.3624 10.7716 26.4533L11.15 26.0783C10.8877 25.5758 10.6686 25.0528 10.4951 24.5144H9.96067C8.68307 24.5144 7.64355 23.4842 7.64355 22.2179V20.6522C7.64355 19.3859 8.68307 18.3557 9.96072 18.3557H10.4951C10.6687 17.8173 10.8877 17.2943 11.1501 16.7918L10.7713 16.4164C9.8537 15.5079 9.87902 14.052 10.7716 13.1683L11.8882 12.0616C12.781 11.1756 14.25 11.1535 15.1655 12.0619L15.5439 12.437C16.0509 12.177 16.5787 11.9599 17.1218 11.7878V11.2582C17.1218 9.99189 18.1613 8.96167 19.439 8.96167H21.0187C22.2964 8.96167 23.3358 9.99189 23.3358 11.2582V11.7879C23.879 11.9599 24.4068 12.177 24.9138 12.437L25.2925 12.0616C26.2098 11.1514 27.6792 11.1781 28.5698 12.062L29.6863 13.1685C30.5786 14.0518 30.6042 15.5076 29.686 16.4167L29.3076 16.7918C29.57 17.2943 29.789 17.8172 29.9626 18.3557H30.497C31.7746 18.3557 32.8141 19.3859 32.8141 20.6522V22.2179C32.8141 23.4842 31.7746 24.5144 30.497 24.5144H29.9626C29.789 25.0528 29.57 25.5758 29.3076 26.0783L29.6863 26.4536C30.604 27.3621 30.5787 28.8181 29.686 29.7018L28.5694 30.8084C27.6767 31.6944 26.2077 31.7166 25.2922 30.8082L24.9138 30.4331C24.4068 30.6931 23.879 30.9102 23.3358 31.0823V31.612C23.3358 32.8781 22.2964 33.9084 21.0187 33.9084ZM15.7904 28.8981C16.4947 29.3109 17.2528 29.6228 18.0435 29.8251C18.3692 29.9083 18.5967 30.1994 18.5967 30.5327V31.6119C18.5967 32.0722 18.9746 32.4466 19.439 32.4466H21.0187C21.4831 32.4466 21.861 32.0722 21.861 31.6119V30.5327C21.861 30.1994 22.0886 29.9083 22.4142 29.8251C23.2049 29.6228 23.963 29.3109 24.6673 28.8981C24.9571 28.7282 25.3261 28.7744 25.5642 29.0104L26.3354 29.7748C26.6679 30.1048 27.2019 30.0971 27.5263 29.7752L28.6436 28.6679C28.9672 28.3475 28.978 27.8182 28.6439 27.4875L27.8723 26.7228C27.6342 26.4869 27.5876 26.1211 27.759 25.834C28.1755 25.1359 28.4901 24.3846 28.6942 23.6009C28.7783 23.2781 29.072 23.0527 29.4082 23.0527H30.497C30.9614 23.0527 31.3393 22.6782 31.3393 22.2179V20.6522C31.3393 20.1919 30.9614 19.8174 30.497 19.8174H29.4082C29.0719 19.8174 28.7783 19.5919 28.6942 19.2692C28.4901 18.4855 28.1755 17.7342 27.759 17.0362C27.5876 16.749 27.6342 16.3833 27.8723 16.1473L28.6436 15.3829C28.977 15.0529 28.9683 14.5237 28.6439 14.2026L27.5267 13.0953C27.2029 12.7739 26.6688 12.7645 26.3357 13.095L25.5642 13.8597C25.3262 14.0957 24.9571 14.1419 24.6674 13.9721C23.963 13.5592 23.205 13.2473 22.4143 13.0451C22.0886 12.9618 21.8611 12.6707 21.8611 12.3374V11.2582C21.8611 10.7979 21.4832 10.4234 21.0188 10.4234H19.4391C18.9746 10.4234 18.5967 10.7979 18.5967 11.2582V12.3373C18.5967 12.6706 18.3692 12.9617 18.0436 13.045C17.2529 13.2472 16.4948 13.5591 15.7905 13.972C15.5006 14.1418 15.1317 14.0956 14.8936 13.8597L14.1224 13.0952C13.7898 12.7653 13.2558 12.7729 12.9315 13.0949L11.8142 14.2022C11.4906 14.5225 11.4798 15.0518 11.8139 15.3825L12.5855 16.1472C12.8235 16.3832 12.8701 16.7489 12.6988 17.0361C12.2823 17.7341 11.9676 18.4854 11.7636 19.2691C11.6795 19.5919 11.3858 19.8173 11.0495 19.8173H9.96072C9.49629 19.8174 9.11839 20.1919 9.11839 20.6522V22.2179C9.11839 22.6782 9.49629 23.0527 9.96072 23.0527H11.0495C11.3858 23.0527 11.6794 23.2781 11.7635 23.6008C11.9676 24.3846 12.2823 25.1359 12.6988 25.8339C12.8701 26.1211 12.8235 26.4868 12.5854 26.7227L11.8141 27.4872C11.4807 27.8172 11.4894 28.3464 11.8139 28.6675L12.931 29.7748C13.2549 30.0961 13.789 30.1056 14.122 29.7751L14.8935 29.0103C15.0689 28.8365 15.4338 28.689 15.7904 28.8981Z" fill="white"/>
<path d="M20.229 26.8628C17.2092 26.8628 14.7524 24.4279 14.7524 21.4349C14.7524 18.442 17.2092 16.0071 20.229 16.0071C23.2488 16.0071 25.7056 18.442 25.7056 21.4349C25.7056 24.4279 23.2488 26.8628 20.229 26.8628ZM20.229 17.4688C18.0224 17.4688 16.2273 19.248 16.2273 21.4349C16.2273 23.6219 18.0225 25.4011 20.229 25.4011C22.4356 25.4011 24.2307 23.6219 24.2307 21.4349C24.2307 19.248 22.4356 17.4688 20.229 17.4688Z" fill="white"/>
</g>
<defs>
<clipPath id="clip0_7736_10">
<rect width="25.1706" height="24.9467" fill="white" transform="translate(7.64355 8.96167)"/>
</clipPath>
</defs>
</svg>
